<mxfile host="app.diagrams.net" modified="2024-05-08T04:48:54.993Z" agent="Mozilla/5.0 (Macintosh; Intel Mac OS X 10_15_7) AppleWebKit/537.36 (KHTML, like Gecko) Chrome/124.0.0.0 Safari/537.36" etag="B45yJGscp8pl6_w_H12B" version="24.3.1" type="device">
  <diagram name="Page-1" id="DYcwWERTmzacjXAGGPeE">
    <mxGraphModel dx="984" dy="659" grid="0" gridSize="10" guides="1" tooltips="1" connect="1" arrows="1" fold="1" page="0" pageScale="1" pageWidth="850" pageHeight="1100" math="0" shadow="0">
      <root>
        <mxCell id="0" />
        <mxCell id="1" parent="0" />
        <mxCell id="-HXaLWI_iHjkZmF-2EiG-3" value="" style="edgeStyle=orthogonalEdgeStyle;rounded=0;orthogonalLoop=1;jettySize=auto;html=1;" edge="1" parent="1" source="-HXaLWI_iHjkZmF-2EiG-1" target="-HXaLWI_iHjkZmF-2EiG-6">
          <mxGeometry relative="1" as="geometry">
            <mxPoint x="385" y="202" as="targetPoint" />
          </mxGeometry>
        </mxCell>
        <mxCell id="-HXaLWI_iHjkZmF-2EiG-1" value="17 keypoints" style="rounded=0;whiteSpace=wrap;html=1;" vertex="1" parent="1">
          <mxGeometry x="185" y="172" width="120" height="60" as="geometry" />
        </mxCell>
        <mxCell id="-HXaLWI_iHjkZmF-2EiG-5" value="" style="edgeStyle=orthogonalEdgeStyle;rounded=0;orthogonalLoop=1;jettySize=auto;html=1;" edge="1" parent="1" target="-HXaLWI_iHjkZmF-2EiG-4">
          <mxGeometry relative="1" as="geometry">
            <mxPoint x="505" y="202" as="sourcePoint" />
          </mxGeometry>
        </mxCell>
        <mxCell id="-HXaLWI_iHjkZmF-2EiG-4" value="check if it is a good keypoinst" style="rounded=0;whiteSpace=wrap;html=1;" vertex="1" parent="1">
          <mxGeometry x="572" y="172" width="120" height="60" as="geometry" />
        </mxCell>
        <mxCell id="-HXaLWI_iHjkZmF-2EiG-8" value="" style="edgeStyle=orthogonalEdgeStyle;rounded=0;orthogonalLoop=1;jettySize=auto;html=1;" edge="1" parent="1" source="-HXaLWI_iHjkZmF-2EiG-6" target="-HXaLWI_iHjkZmF-2EiG-4">
          <mxGeometry relative="1" as="geometry" />
        </mxCell>
        <mxCell id="-HXaLWI_iHjkZmF-2EiG-6" value="if good pose" style="rhombus;whiteSpace=wrap;html=1;" vertex="1" parent="1">
          <mxGeometry x="399" y="162" width="80" height="80" as="geometry" />
        </mxCell>
        <mxCell id="-HXaLWI_iHjkZmF-2EiG-9" value="" style="rounded=1;whiteSpace=wrap;html=1;" vertex="1" parent="1">
          <mxGeometry x="366" y="38" width="120" height="60" as="geometry" />
        </mxCell>
      </root>
    </mxGraphModel>
  </diagram>
</mxfile>
